<svg width="103" height="32" viewBox="0 0 103 32" fill="none" xmlns="http://www.w3.org/2000/svg">
<path d="M12.2396 7.63324C14.4334 7.63324 16.2243 8.44432 17.6122 10.0666C19.0001 11.6666 19.6941 13.7777 19.6941 16.3999C19.6941 18.9999 18.9889 21.111 17.5786 22.7332C16.1683 24.3332 14.3551 25.1332 12.1389 25.1332C10.8853 25.1332 9.78834 24.8555 8.84813 24.2999C7.93033 23.7222 7.28109 23.0222 6.90055 22.1999V24.6666H0.319092V1.26657H6.90055V10.5666C7.28109 9.72215 7.9415 9.02215 8.88171 8.46657C9.84433 7.91099 10.9636 7.63324 12.2396 7.63324ZM7.50497 18.9666C8.08697 19.611 8.83696 19.9332 9.75475 19.9332C10.6725 19.9332 11.4225 19.5999 12.0045 18.9332C12.5865 18.2666 12.8776 17.4222 12.8776 16.3999C12.8776 15.3555 12.5865 14.511 12.0045 13.8666C11.4225 13.2222 10.6725 12.8999 9.75475 12.8999C8.83696 12.8999 8.08697 13.2222 7.50497 13.8666C6.92296 14.511 6.63192 15.3555 6.63192 16.3999C6.63192 17.4443 6.92296 18.2999 7.50497 18.9666ZM22.3224 24.6666V8.0999H28.9039V11.7999C29.1952 10.5332 29.777 9.54432 30.6501 8.83324C31.5231 8.12215 32.5414 7.76657 33.7057 7.76657C34.1313 7.76657 34.5452 7.7999 34.9481 7.86657V14.0332C34.3882 13.9443 33.8291 13.8999 33.2692 13.8999C31.9034 13.8999 30.8289 14.2888 30.0456 15.0666C29.2842 15.8222 28.9039 17.1666 28.9039 19.0999V24.6666H22.3224ZM40.6977 7.53324C39.645 7.53324 38.7719 7.18882 38.0785 6.4999C37.3843 5.78882 37.0376 4.94432 37.0376 3.96657C37.0376 2.96657 37.3843 2.12215 38.0785 1.43324C38.7719 0.74432 39.645 0.399902 40.6977 0.399902C41.7269 0.399902 42.589 0.74432 43.2833 1.43324C43.9993 2.12215 44.3578 2.96657 44.3578 3.96657C44.3578 4.94432 43.9993 5.78882 43.2833 6.4999C42.589 7.18882 41.7269 7.53324 40.6977 7.53324ZM37.407 24.6666V8.0999H43.9884V24.6666H37.407ZM59.4204 8.0999H66.0019V23.1666C66.0019 26.2777 64.8602 28.5999 62.5768 30.1332C61.1665 31.0888 59.1182 31.5666 56.4319 31.5666C53.8128 31.5666 51.7644 31.1666 50.287 30.3666C49.3241 29.8555 48.5291 29.1666 47.9029 28.2999C47.2985 27.4332 46.9954 26.5555 46.9954 25.6666H53.6449C53.8237 26.6443 54.7194 27.1332 56.3312 27.1332C58.3904 27.1332 59.4204 26.1332 59.4204 24.1332V21.5332C59.062 22.3555 58.4013 23.0222 57.4393 23.5332C56.4764 24.0443 55.4245 24.2999 54.282 24.2999C51.9542 24.2999 50.0964 23.5443 48.7088 22.0332C47.3203 20.4999 46.6269 18.511 46.6269 16.0666C46.6269 13.5777 47.332 11.5555 48.7423 9.9999C50.1527 8.42215 52.0104 7.63324 54.3164 7.63324C55.5026 7.63324 56.5545 7.8999 57.4729 8.43324C58.4131 8.96657 59.062 9.67765 59.4204 10.5666V8.0999ZM56.5662 19.6666C57.5283 19.6666 58.2897 19.3332 58.8496 18.6666C59.4087 17.9999 59.6891 17.1666 59.6891 16.1666C59.6891 15.1666 59.4087 14.3332 58.8496 13.6666C58.2897 12.9999 57.5283 12.6666 56.5662 12.6666C55.6478 12.6666 54.8982 12.9999 54.3164 13.6666C53.7338 14.311 53.4434 15.1443 53.4434 16.1666C53.4434 17.1888 53.7338 18.0332 54.3164 18.6999C54.8982 19.3443 55.6478 19.6666 56.5662 19.6666ZM81.8259 7.63324C85.8999 7.63324 87.9373 9.94432 87.9373 14.5666V24.6666H81.2215V16.2332C81.2215 14.1443 80.4492 13.0999 78.9046 13.0999C77.2475 13.0999 76.4197 14.1888 76.4197 16.3666V24.6666H69.8383V1.33324H76.4197V10.5332C77.3146 8.5999 79.117 7.63324 81.8259 7.63324ZM101.321 19.8332C101.724 19.8332 102.283 19.7888 103 19.6999V24.6666C101.746 24.8888 100.381 24.9999 98.9033 24.9999C98.0303 24.9999 97.2579 24.9222 96.5864 24.7666C95.9148 24.611 95.2432 24.3332 94.5716 23.9332C93.9001 23.511 93.3737 22.8666 92.9934 21.9999C92.635 21.111 92.4562 20.011 92.4562 18.6999V13.0999H90.0049V8.0999H92.4562V3.26657H99.0376V8.0999H102.832V13.0999H99.0376V17.3332C99.0376 18.9999 99.7982 19.8332 101.321 19.8332Z" fill="white"/>
</svg>

    
