<svg width="215" height="200" viewBox="0 0 215 200" fill="none" xmlns="http://www.w3.org/2000/svg">
<path fill-rule="evenodd" clip-rule="evenodd" d="M96.61 1.55183C120.494 -2.44731 146.042 1.09866 166.317 14.3404C187.14 27.9405 200.21 50.4712 207.784 74.161C215.331 97.7653 217.51 123.546 208.629 146.681C200.002 169.153 182.828 189.496 160.277 197.913C139.674 205.604 118.571 189.648 96.61 188.492C76.4602 187.431 55.7714 200.298 37.6328 191.459C18.4971 182.134 3.36367 162.638 0.322113 141.57C-2.58957 121.401 14.9995 105.156 22.4346 86.1826C29.2492 68.7928 29.7132 49.1985 42.024 35.1525C56.4603 18.6813 75.0085 5.16886 96.61 1.55183Z" fill="#D1C1B4"/>
</svg>
